<svg xmlns="http://www.w3.org/2000/svg" version="1.1" xmlns:xlink="http://www.w3.org/1999/xlink" xmlns:svgjs="http://svgjs.dev/svgjs" viewBox="0 0 800 800"><defs><filter id="bbburst-blur-1" x="-100%" y="-100%" width="400%" height="400%"><feGaussianBlur in="SourceGraphic" stdDeviation="1"></feGaussianBlur></filter><filter id="bbburst-blur-2" x="-100%" y="-100%" width="400%" height="400%"><feGaussianBlur in="SourceGraphic" stdDeviation="2"></feGaussianBlur></filter><filter id="bbburst-blur-3" x="-100%" y="-100%" width="400%" height="400%"><feGaussianBlur in="SourceGraphic" stdDeviation="4"></feGaussianBlur></filter><filter id="bbburst-blur-4" x="-100%" y="-100%" width="400%" height="400%"><feGaussianBlur in="SourceGraphic" stdDeviation="12"></feGaussianBlur></filter><symbol id="bbburst-shape-1" viewBox="0 0 194 167"><path d="m97 0 96.129 166.5H.871L97 0Z"></path></symbol><symbol id="bbburst-shape-2" viewBox="0 0 126 115"><path d="m63 0 62.77 43.877-23.976 70.996H24.206L.23 43.877 63 0Z"></path></symbol><symbol id="bbburst-shape-3" viewBox="0 0 131 127"><path d="m66 0 66 63.5L66 127 0 63.5 66 0Z"></path></symbol><symbol id="bbburst-shape-4" viewBox="0 0 149 143"><path d="M71.647 2.781c.898-2.764 4.808-2.764 5.706 0l15.445 47.534a3 3 0 0 0 2.853 2.073h49.98c2.906 0 4.115 3.719 1.764 5.427L106.96 87.193a2.999 2.999 0 0 0-1.09 3.354l15.445 47.534c.898 2.764-2.266 5.062-4.617 3.354l-40.435-29.378a3 3 0 0 0-3.526 0l-40.435 29.378c-2.351 1.708-5.515-.59-4.617-3.354L43.13 90.547a3 3 0 0 0-1.09-3.354L1.605 57.815c-2.35-1.708-1.142-5.427 1.764-5.427h49.98a3 3 0 0 0 2.853-2.073L71.647 2.781Z"></path></symbol><symbol id="bbburst-shape-5" viewBox="0 0 145 145"><circle cx="72.5" cy="72.5" r="72.5"></circle></symbol><symbol id="bbburst-shape-7" viewBox="0 0 139 124"><path fill-rule="evenodd" clip-rule="evenodd" d="M70.1641 15.0917C54.6093.764854 37.8293-2.10782 24.4032 2.82615 10.3804 7.97941.763366 21.4591 1.00047 37.0608c.1068 7.0273 2.86132 13.7317 7.0039 20.2001C12.1442 63.7249 17.853 70.2322 24.25 76.9024c3.8209 3.9842 7.8871 8.0312 12.0767 12.201h.0001c10.0335 9.9862 20.7748 20.6766 30.5497 32.8956 1.38 1.725 3.8972 2.005 5.6223.624.6706-.536 1.1228-1.244 1.3439-2.011 9.5768-11.748 20.0328-22.0735 29.8163-31.7351 4.19-4.1373 8.256-8.1528 12.078-12.1062 6.396-6.6176 12.106-13.0752 16.247-19.4911 4.144-6.4196 6.905-13.0811 7.012-20.0691.237-15.5124-9.399-28.8902-23.411-33.99923-13.32-4.85681-29.9542-2.08621-45.4209 11.88043Zm-3.7351 7.4919C52.1278 8.44857 37.6826 6.46918 27.1626 10.3352 16.2859 14.3323 8.8148 24.7824 8.99955 36.9392c.07575 4.9844 2.03755 10.2234 5.74165 16.0072 3.707 5.7881 8.9752 11.8418 15.2827 18.4187 3.5798 3.7328 7.4978 7.6329 11.6 11.7163 9.0476 9.0063 18.9911 18.9046 28.1786 29.8666 9.2999-11.068 19.4036-21.0473 28.5839-30.1144l.0007-.0006c4.1019-4.0508 8.0189-7.9196 11.5979-11.6222 6.307-6.5252 11.573-12.5298 15.278-18.2697 3.703-5.7362 5.658-10.924 5.734-15.8531.184-12.0276-7.267-22.3914-18.153-26.3608-10.71-3.90518-25.4722-1.80041-40.0023 12.867-1.5547 1.5694-4.0874 1.5813-5.6568.0265-.3146-.3116-.5666-.6625-.7559-1.0371Z"></path></symbol><symbol id="bbburst-shape-8" viewBox="0 0 87 168"><path d="m12 12 31.2546 18.0749c16.4102 9.4902 20.014 31.6325 7.4603 45.8369L36.3296 92.1884c-12.5684 14.2206-8.9394 36.3916 7.5068 45.8636L75 156" stroke-width="14" stroke-linecap="round" stroke-linejoin="round"></path></symbol><symbol id="bbburst-shape-9" viewBox="0 0 182 172"><path d="M13.5809 69.845 91 13.5967l77.419 56.2483-29.571 91.012H43.1524L13.5809 69.845Z" stroke-width="22"></path></symbol><symbol id="bbburst-shape-10" viewBox="0 0 145 145"><circle cx="72.5" cy="72.5" r="61.5" fill="none" stroke-width="22"></circle></symbol><symbol id="bbburst-shape-11" viewBox="0 0 194 167"><path d="M10.398 161 97 11l86.603 150H10.397Z" stroke-width="11"></path></symbol><symbol id="bbburst-shape-12" viewBox="0 0 170 151"><path d="M69.3728 54.2122 85 10.0031l15.627 44.2091c1.413 3.9958 5.19 6.6672 9.428 6.6673h49.312l-39.149 26.1447c-3.803 2.5401-5.399 7.3367-3.875 11.6488l15.179 42.94-40.9683-27.36c-3.3621-2.245-7.7453-2.245-11.1074 0l-40.9682 27.36 15.1785-42.94c1.5243-4.3121-.0712-9.1087-3.8746-11.6488L10.6333 60.8795h49.3112c4.2381-.0001 8.0159-2.6715 9.4283-6.6673Z" stroke-width="12"></path></symbol><symbol id="bbburst-shape-13" viewBox="0 0 159 159"><path stroke-width="22" d="M11 11h137v137H11z"></path></symbol><symbol id="bbburst-shape-14" viewBox="0 0 185 109"><path d="M168 16.5C168 58.1975 134.197 92 92.5 92 50.8025 92 17 58.1975 17 16.5" stroke-width="33" stroke-linecap="round"></path></symbol></defs><use xlink:href="#bbburst-shape-13" width="27.83174019362573" opacity="0.06114432234071021" transform="matrix(1.6462647975121931,-0.5935589410261947,0.5935589410261947,1.6462647975121931,353.72170100791163,113.99881179214094)" fill="none" stroke="#ffbd9b" filter="url(#bbburst-blur-4)"></use><use xlink:href="#bbburst-shape-12" width="11.298370320665414" opacity="0.8144530435625" transform="matrix(0.7795299337426855,-0.6263649753930406,0.6263649753930406,0.7795299337426855,132.3626052834432,174.2390232302276)" fill="none" stroke="#ff5c58"></use><use xlink:href="#bbburst-shape-12" width="10.724196206107013" opacity="0.8493185944567071" transform="matrix(0.9948612628026977,-0.10124755688223652,0.10124755688223652,0.9948612628026977,419.5909417443389,20.3867524456532)" fill="none" stroke="#ffa6d5"></use><use xlink:href="#bbburst-shape-9" width="10.216184222308726" opacity="0.896897329179426" transform="matrix(0.8491303179399161,0.5281833991666692,-0.5281833991666692,0.8491303179399161,565.1007359806505,77.57589066176149)" fill="none" stroke="#2c2891"></use><use xlink:href="#bbburst-shape-14" width="11.578798245795811" opacity="0.7823286551461828" transform="matrix(0.9658962263186596,0.2589294884391747,-0.2589294884391747,0.9658962263186596,407.2689074278138,-24.813725118177217)" fill="none" stroke="#2c2891"></use><use xlink:href="#bbburst-shape-8" width="18.250708574856723" opacity="0.5720948106796564" transform="matrix(0.9200934944783548,0.3916988146760337,-0.3916988146760337,0.9200934944783548,727.3164618634385,99.27877946837015)" fill="none" stroke="#2c2891" filter="url(#bbburst-blur-1)"></use><use xlink:href="#bbburst-shape-13" width="23.29407557296399" opacity="0.5834319990653385" transform="matrix(0.9796200548154189,0.20085952355672754,-0.20085952355672754,0.9796200548154189,315.20972860268864,113.0898231163423)" fill="none" stroke="#ffa6d5" filter="url(#bbburst-blur-1)"></use><use xlink:href="#bbburst-shape-5" width="9.5432292221284" opacity="0.8988707093237652" transform="matrix(0.8551563577782597,-0.51837014164728,0.51837014164728,0.8551563577782597,217.49177693942002,25.273899864920566)" fill="#00a19d"></use><use xlink:href="#bbburst-shape-4" width="26.075710790283438" opacity="0.27222867812014384" transform="matrix(0.9947589246524058,-0.7569377000945252,0.7569377000945252,0.9947589246524058,117.28221364838396,337.8181966821511)" fill="#2c2891" filter="url(#bbburst-blur-3)"></use><use xlink:href="#bbburst-shape-7" width="31.67264015642" opacity="0.12445147429027958" transform="matrix(1.041092008383378,0.6918290468607579,-0.6918290468607579,1.041092008383378,517.0028799215142,339.59692962300244)" fill="#2c2891" filter="url(#bbburst-blur-3)"></use><use xlink:href="#bbburst-shape-7" width="9.969333313426155" opacity="0.8268057745592244" transform="matrix(0.8250759080253406,-0.5650218986872629,0.5650218986872629,0.8250759080253406,107.8140723481099,119.98547187016362)" fill="#ffa6d5"></use><use xlink:href="#bbburst-shape-4" width="31.54105875243111" opacity="-0.09629239604547846" transform="matrix(1.6603888274575622,0.5528190858265498,-0.5528190858265498,1.6603888274575622,933.5993583379868,85.8891202753473)" fill="#ff5c58" filter="url(#bbburst-blur-4)"></use><use xlink:href="#bbburst-shape-12" width="22.211471144627748" opacity="0.4487956069311464" transform="matrix(0.8612812223720607,-0.5081285821416551,0.5081285821416551,0.8612812223720607,201.7327928848035,-186.51769202773787)" fill="none" stroke="#ffa6d5" filter="url(#bbburst-blur-2)"></use><use xlink:href="#bbburst-shape-10" width="18.887678593617405" opacity="0.394393366960753" transform="matrix(0.9990792871178273,-0.04290195860486993,0.04290195860486993,0.9990792871178273,635.0591007816964,76.966736829654)" fill="none" stroke="#ff5c58" filter="url(#bbburst-blur-2)"></use><use xlink:href="#bbburst-shape-8" width="39.27763350144842" opacity="0.153878779066139" transform="matrix(1.2493729299464997,0.03958891153970416,-0.03958891153970416,1.2493729299464997,519.2623288040608,-459.13438950340196)" fill="none" stroke="#00a19d" filter="url(#bbburst-blur-3)"></use><use xlink:href="#bbburst-shape-3" width="12.316227337209755" opacity="0.6988747431828757" transform="matrix(0.9856879888355409,0.16857991774036038,-0.16857991774036038,0.9856879888355409,450.0294762376436,-130.3567921131314)" fill="#ffa6d5" filter="url(#bbburst-blur-1)"></use><use xlink:href="#bbburst-shape-3" width="35.970495356266255" opacity="-0.10148193882439083" transform="matrix(1.5677454593566253,-0.7776079826407928,0.7776079826407928,1.5677454593566253,-293.10004260787605,134.29887347608144)" fill="#00a19d" filter="url(#bbburst-blur-4)"></use><use xlink:href="#bbburst-shape-9" width="13.107112547535415" opacity="0.7676940411045844" transform="matrix(0.9175010589484723,-0.3977333363303004,0.3977333363303004,0.9175010589484723,237.64957788392775,140.02548521815925)" fill="none" stroke="#00a19d" filter="url(#bbburst-blur-1)"></use><use xlink:href="#bbburst-shape-5" width="35.15991354269211" opacity="0.2062089219158516" transform="matrix(1.2173317156444305,-0.2839075449617132,0.2839075449617132,1.2173317156444305,-33.91117597894301,-277.4575692142324)" fill="#00a19d" filter="url(#bbburst-blur-3)"></use><use xlink:href="#bbburst-shape-12" width="27.04627242278309" opacity="0.3810342441128268" transform="matrix(0.9996763518830163,0.025439958448548426,-0.025439958448548426,0.9996763518830163,123.3181786115251,53.27729713323072)" fill="none" stroke="#2c2891" filter="url(#bbburst-blur-2)"></use><use xlink:href="#bbburst-shape-11" width="19.655940288357336" opacity="0.5281284043808157" transform="matrix(0.9984518552313278,-0.055622772181181813,0.055622772181181813,0.9984518552313278,155.83852391559947,-9.524386389854328)" fill="none" stroke="#2c2891" filter="url(#bbburst-blur-2)"></use><use xlink:href="#bbburst-shape-1" width="11.403802771083797" opacity="0.7564396853548901" transform="matrix(0.7553412500842496,0.6553316686389901,-0.6553316686389901,0.7553412500842496,621.8065050115861,197.65576093685763)" fill="#2c2891" filter="url(#bbburst-blur-1)"></use><use xlink:href="#bbburst-shape-10" width="8.183080180287627" opacity="0.9336785696014754" transform="matrix(0.8825204073842311,-0.47027410150929083,0.47027410150929083,0.8825204073842311,217.18552116144997,20.431154818760092)" fill="none" stroke="#2c2891"></use><use xlink:href="#bbburst-shape-3" width="28.21317858660859" opacity="0.3804725338212842" transform="matrix(0.9539637709776209,-0.2999218625945052,0.2999218625945052,0.9539637709776209,156.04204652769522,-233.30624439108976)" fill="#2c2891" filter="url(#bbburst-blur-2)"></use><use xlink:href="#bbburst-shape-7" width="8.31110822471617" opacity="0.8666174049350145" transform="matrix(0.933106910515065,-0.3595990733428417,0.3595990733428417,0.933106910515065,280.72193089930516,81.1013507675566)" fill="#00a19d"></use><use xlink:href="#bbburst-shape-11" width="29.268154436787036" opacity="0.18720201216271604" transform="matrix(1.2006824897310873,0.3476514905090409,-0.3476514905090409,1.2006824897310873,887.357765995593,-81.7890892473635)" fill="none" stroke="#ffa6d5" filter="url(#bbburst-blur-3)"></use><use xlink:href="#bbburst-shape-5" width="12.390455004689414" opacity="0.7300306532657767" transform="matrix(0.8596062620881154,0.5109570179368302,-0.5109570179368302,0.8596062620881154,503.0934537578329,-21.50520880867242)" fill="#00a19d" filter="url(#bbburst-blur-1)"></use><use xlink:href="#bbburst-shape-12" width="9.67443300940177" opacity="0.8259020751560283" transform="matrix(0.9216215399657318,-0.38808985695479453,0.38808985695479453,0.9216215399657318,257.8407504339431,109.56749932915051)" fill="none" stroke="#ffa6d5"></use><use xlink:href="#bbburst-shape-14" width="12.756860901221648" opacity="0.688969715467703" transform="matrix(0.7261108697564054,-0.6875776354867837,0.6875776354867837,0.7261108697564054,90.69497059027668,250.739945871442)" fill="none" stroke="#00a19d" filter="url(#bbburst-blur-1)"></use><use xlink:href="#bbburst-shape-9" width="8.482379360400808" opacity="0.8666807304221409" transform="matrix(0.8589144495162994,0.5121190959260478,-0.5121190959260478,0.8589144495162994,561.6671606697504,99.30963771335263)" fill="none" stroke="#2c2891"></use><use xlink:href="#bbburst-shape-5" width="7.815215907299932" opacity="0.9138623398211733" transform="matrix(0.9905911640652888,0.13685446896530643,-0.13685446896530643,0.9905911640652888,438.4447742350691,-33.48743285387923)" fill="#00a19d"></use><use xlink:href="#bbburst-shape-12" width="21.592770134141936" opacity="0.46823975549275665" transform="matrix(0.9517449742369716,-0.30689005199691016,0.30689005199691016,0.9517449742369716,91.07230693520955,-139.67311290872908)" fill="none" stroke="#2c2891" filter="url(#bbburst-blur-2)"></use><use xlink:href="#bbburst-shape-3" width="15.395903413957125" opacity="0.7856907982880819" transform="matrix(0.898452603596902,-0.4390705172178474,0.4390705172178474,0.898452603596902,283.37679314776017,-26.31685033893558)" fill="#ffbd9b"></use><use xlink:href="#bbburst-shape-7" width="26.18764004633944" opacity="0.34367342753460917" transform="matrix(0.9947606060530172,-0.10223177903682329,0.10223177903682329,0.9947606060530172,310.0173557018374,296.5837059138828)" fill="#ffa6d5" filter="url(#bbburst-blur-2)"></use><use xlink:href="#bbburst-shape-1" width="7.534872657099449" opacity="0.8949739593063315" transform="matrix(0.7858919537415586,0.6183638387262599,-0.6183638387262599,0.7858919537415586,629.7691888994991,128.26818067564113)" fill="#00a19d"></use><use xlink:href="#bbburst-shape-10" width="13.403578294070446" opacity="0.7916184323911752" transform="matrix(0.9766963308274822,0.2146259009256188,-0.2146259009256188,0.9766963308274822,428.4697810520288,-70.91373954444907)" fill="none" stroke="#ff5c58"></use><use xlink:href="#bbburst-shape-7" width="27.40260223405985" opacity="0.43198975669527273" transform="matrix(0.988103216074255,0.15379217920204552,-0.15379217920204552,0.988103216074255,664.1838872366369,138.81711820533974)" fill="#2c2891" filter="url(#bbburst-blur-2)"></use><use xlink:href="#bbburst-shape-7" width="22.388223943735326" opacity="0.4928894201766526" transform="matrix(0.8913312372841333,-0.4533526501979845,0.4533526501979845,0.8913312372841333,148.12036175040447,-171.46545917189113)" fill="#ff5c58" filter="url(#bbburst-blur-2)"></use><use xlink:href="#bbburst-shape-14" width="30.053617281047377" opacity="0.48983205489224346" transform="matrix(0.999987715990281,0.00495659848494658,-0.00495659848494658,0.999987715990281,540.4053230274618,170.7287453163682)" fill="none" stroke="#ff5c58" filter="url(#bbburst-blur-2)"></use><use xlink:href="#bbburst-shape-2" width="23.96401004087434" opacity="0.15361893869600673" transform="matrix(1.1416970907298396,0.5089476918299368,-0.5089476918299368,1.1416970907298396,677.8484942286229,307.81322096808753)" fill="#ff5c58" filter="url(#bbburst-blur-3)"></use><use xlink:href="#bbburst-shape-5" width="23.534588335817077" opacity="0.43472811912311327" transform="matrix(0.9371408430023619,0.34895134385301124,-0.34895134385301124,0.9371408430023619,675.0532038273195,-186.91196331990741)" fill="#00a19d" filter="url(#bbburst-blur-2)"></use><use xlink:href="#bbburst-shape-10" width="21.32454697354379" opacity="0.57987456199326" transform="matrix(0.9881178396406295,-0.15369819447194275,0.15369819447194275,0.9881178396406295,285.8672078084518,190.69686324521552)" fill="none" stroke="#ffbd9b" filter="url(#bbburst-blur-1)"></use><use xlink:href="#bbburst-shape-11" width="12.868156862775384" opacity="0.7135469128290883" transform="matrix(0.7630044202354583,0.6463932662869812,-0.6463932662869812,0.7630044202354583,580.2466404898474,196.40276318298157)" fill="none" stroke="#ff5c58" filter="url(#bbburst-blur-1)"></use><use xlink:href="#bbburst-shape-10" width="15.805798896758748" opacity="0.7890559906845844" transform="matrix(0.999778272076532,0.021057224025590744,-0.021057224025590744,0.999778272076532,485.5731806709619,42.076413488223636)" fill="none" stroke="#2c2891"></use><use xlink:href="#bbburst-shape-1" width="27.743028528434998" opacity="0.12827081229736836" transform="matrix(1.248261273954086,0.06590744985601152,-0.06590744985601152,1.248261273954086,282.00563678959656,-471.3116146881485)" fill="#2c2891" filter="url(#bbburst-blur-3)"></use><use xlink:href="#bbburst-shape-14" width="10.719946220149449" opacity="0.778440938258644" transform="matrix(0.7900290592239992,-0.6130693970356396,0.6130693970356396,0.7900290592239992,189.92758800982875,178.88030005708765)" fill="none" stroke="#2c2891"></use><use xlink:href="#bbburst-shape-4" width="7.415282249123141" opacity="0.9481566141284914" transform="matrix(0.8357500612438038,-0.549110039182474,0.549110039182474,0.8357500612438038,158.1564543391192,81.13115463583398)" fill="#00a19d"></use><use xlink:href="#bbburst-shape-10" width="27.6731617021651" opacity="0.3960702926330081" transform="matrix(0.95023871702649,-0.311522680817706,0.311522680817706,0.95023871702649,388.0651166895356,265.1024625914831)" fill="none" stroke="#2c2891" filter="url(#bbburst-blur-2)"></use><use xlink:href="#bbburst-shape-10" width="29.800487061147813" opacity="0.3319551128765317" transform="matrix(1.1532127311038858,-0.48228663346594725,0.48228663346594725,1.1532127311038858,490.4042769911516,-45.672854190229714)" fill="none" stroke="#00a19d" filter="url(#bbburst-blur-3)"></use><use xlink:href="#bbburst-shape-11" width="32.30815814206979" opacity="0.13167761816379564" transform="matrix(0.9787451512933577,-0.7775332332574231,0.7775332332574231,0.9787451512933577,-211.17689929557238,289.00002053633176)" fill="none" stroke="#00a19d" filter="url(#bbburst-blur-3)"></use><use xlink:href="#bbburst-shape-9" width="13.447659741971261" opacity="0.7470712086264482" transform="matrix(0.7975007743861234,-0.6033179218733133,0.6033179218733133,0.7975007743861234,169.33241278003425,-27.69283491287564)" fill="none" stroke="#2c2891" filter="url(#bbburst-blur-1)"></use><use xlink:href="#bbburst-shape-12" width="29.994047879149015" opacity="0.1839857866711001" transform="matrix(1.247809499777753,0.07396926567429113,-0.07396926567429113,1.247809499777753,708.1921154813144,-315.8120274959714)" fill="none" stroke="#00a19d" filter="url(#bbburst-blur-3)"></use><use xlink:href="#bbburst-shape-3" width="20.22218805808521" opacity="0.5286785825219462" transform="matrix(0.8182579362451505,0.5748512414284475,-0.5748512414284475,0.8182579362451505,654.113336154264,276.4284097622383)" fill="#ffa6d5" filter="url(#bbburst-blur-2)"></use><use xlink:href="#bbburst-shape-5" width="11.759747392446496" opacity="0.73480200396816" transform="matrix(0.7957723315246105,-0.6055959018849826,0.6055959018849826,0.7957723315246105,35.430183726466396,65.25875109162348)" fill="#2c2891" filter="url(#bbburst-blur-1)"></use><use xlink:href="#bbburst-shape-7" width="13.883165882087486" opacity="0.6433478179258079" transform="matrix(0.9935983634695555,-0.11297031517447885,0.11297031517447885,0.9935983634695555,366.3205519641483,-156.08287390209824)" fill="#00a19d" filter="url(#bbburst-blur-1)"></use><use xlink:href="#bbburst-shape-13" width="21.917667885601023" opacity="0.2623575390280881" transform="matrix(0.9079225016781158,-0.8591721195118889,0.8591721195118889,0.9079225016781158,-281.2213947963356,99.72552403361601)" fill="none" stroke="#2c2891" filter="url(#bbburst-blur-3)"></use><use xlink:href="#bbburst-shape-14" width="28.79706819003655" opacity="0.1152968396650188" transform="matrix(1.0408349112063526,-0.6922157811073538,0.6922157811073538,1.0408349112063526,371.1882081227939,-305.1739263575493)" fill="none" stroke="#ffa6d5" filter="url(#bbburst-blur-3)"></use><use xlink:href="#bbburst-shape-5" width="19.292506753056863" opacity="0.6320965171400041" transform="matrix(0.976015871486038,0.21769937668112377,-0.21769937668112377,0.976015871486038,526.1549015495629,165.78988682883056)" fill="#00a19d" filter="url(#bbburst-blur-1)"></use><use xlink:href="#bbburst-shape-9" width="37.94476919052528" opacity="0.32681277687327026" transform="matrix(1.167949932666515,-0.44541324046808806,0.44541324046808806,1.167949932666515,398.202988791429,169.68761671634093)" fill="none" stroke="#00a19d" filter="url(#bbburst-blur-3)"></use><use xlink:href="#bbburst-shape-4" width="8.59422367951112" opacity="0.9245980648889376" transform="matrix(0.9855701462357487,0.16926750086429768,-0.16926750086429768,0.9855701462357487,495.3965229869955,-6.4384803693174035)" fill="#2c2891"></use><use xlink:href="#bbburst-shape-12" width="11.303587365760869" opacity="0.8805280931709131" transform="matrix(0.9413035427117654,-0.337561313657652,0.337561313657652,0.9413035427117654,312.9662125042764,18.46700117128779)" fill="none" stroke="#ffa6d5"></use><use xlink:href="#bbburst-shape-10" width="29.896360134144533" opacity="0.3174554137176673" transform="matrix(1.120156143832285,0.5547523893006548,-0.5547523893006548,1.120156143832285,409.3059223015215,180.24716405964847)" fill="none" stroke="#ffa6d5" filter="url(#bbburst-blur-3)"></use><use xlink:href="#bbburst-shape-14" width="27.572765216893835" opacity="0.5017211508894953" transform="matrix(0.9709272802627975,0.23937463616993135,-0.23937463616993135,0.9709272802627975,359.6150079008566,-179.2831281184087)" fill="none" stroke="#ff5c58" filter="url(#bbburst-blur-2)"></use><use xlink:href="#bbburst-shape-5" width="17.26203689774164" opacity="0.6797945752842135" transform="matrix(0.8174045732296726,-0.5760640273990528,0.5760640273990528,0.8174045732296726,114.09068699713998,-57.7001528806494)" fill="#2c2891" filter="url(#bbburst-blur-1)"></use><use xlink:href="#bbburst-shape-9" width="26.467558947361848" opacity="0.4635517031925128" transform="matrix(0.987090491999775,0.1601635433038432,-0.1601635433038432,0.987090491999775,275.154388682597,168.22290070796032)" fill="none" stroke="#ffbd9b" filter="url(#bbburst-blur-2)"></use><use xlink:href="#bbburst-shape-7" width="26.82773937868981" opacity="0.4016022593930928" transform="matrix(0.8880123821499009,-0.4598195397636539,0.4598195397636539,0.8880123821499009,-29.59591539339658,-82.83231498798023)" fill="#2c2891" filter="url(#bbburst-blur-2)"></use><use xlink:href="#bbburst-shape-5" width="25.93496437246032" opacity="0.13581824196012615" transform="matrix(0.8893568512410739,-0.8783759964562797,0.8783759964562797,0.8893568512410739,-331.9047920867101,178.33444860292832)" fill="#00a19d" filter="url(#bbburst-blur-3)"></use><use xlink:href="#bbburst-shape-8" width="17.045650721643728" opacity="0.6671278372134762" transform="matrix(0.9877444072647342,-0.15608006252317705,0.15608006252317705,0.9877444072647342,194.70616846356518,-59.818667969228215)" fill="none" stroke="#2c2891" filter="url(#bbburst-blur-1)"></use><use xlink:href="#bbburst-shape-2" width="21.99969581367298" opacity="0.2740858387764702" transform="matrix(1.1050121363424446,-0.5843356728250526,0.5843356728250526,1.1050121363424446,464.06208849021084,-138.72431287948592)" fill="#ffbd9b" filter="url(#bbburst-blur-3)"></use><use xlink:href="#bbburst-shape-9" width="12.568861364618087" opacity="0.6691912383637749" transform="matrix(0.9295504828906982,0.3686948599555869,-0.3686948599555869,0.9295504828906982,688.8442178495083,48.133036669094)" fill="none" stroke="#2c2891" filter="url(#bbburst-blur-1)"></use><use xlink:href="#bbburst-shape-14" width="27.203429437221526" opacity="0.460320378985419" transform="matrix(0.9195550150702921,0.39296128849935696,-0.39296128849935696,0.9195550150702921,332.66301600286016,145.3369072600317)" fill="none" stroke="#2c2891" filter="url(#bbburst-blur-2)"></use><use xlink:href="#bbburst-shape-3" width="32.497764787224476" opacity="0.012104888935782543" transform="matrix(1.415598453045762,1.0288736655850639,-1.0288736655850639,1.415598453045762,1141.458037568188,87.02124069950833)" fill="#ffa6d5" filter="url(#bbburst-blur-4)"></use><use xlink:href="#bbburst-shape-13" width="12.926450049057589" opacity="0.8553151889266085" transform="matrix(0.7862986409618894,-0.6178466211135947,0.6178466211135947,0.7862986409618894,202.73777407655896,54.564816160098815)" fill="none" stroke="#ff5c58"></use><use xlink:href="#bbburst-shape-5" width="23.97830184202539" opacity="0.43632297772233164" transform="matrix(0.8076668895991971,-0.5896390382642235,0.5896390382642235,0.8076668895991971,-90.50881197900404,18.196689725775116)" fill="#00a19d" filter="url(#bbburst-blur-2)"></use><use xlink:href="#bbburst-shape-2" width="20.25364693268828" opacity="0.465436872037447" transform="matrix(0.9486500047738823,-0.31632762832625483,0.31632762832625483,0.9486500047738823,484.86293009769963,-71.25234458601244)" fill="#00a19d" filter="url(#bbburst-blur-2)"></use><use xlink:href="#bbburst-shape-13" width="13.826318778880403" opacity="0.7646187337279629" transform="matrix(0.7520005280030151,-0.6591625033959279,0.6591625033959279,0.7520005280030151,236.06057716301206,118.25758537564695)" fill="none" stroke="#ffa6d5" filter="url(#bbburst-blur-1)"></use><use xlink:href="#bbburst-shape-13" width="10.539263098746439" opacity="0.8027091244324729" transform="matrix(0.9888110868532611,-0.14917316955831067,0.14917316955831067,0.9888110868532611,324.60347419104517,-82.894166059069)" fill="none" stroke="#00a19d"></use><use xlink:href="#bbburst-shape-13" width="40.80228141751894" opacity="0.017396553166697526" transform="matrix(1.7119927672255117,-0.3627406304338327,0.3627406304338327,1.7119927672255117,-140.69028261017777,-533.1988552707049)" fill="none" stroke="#00a19d" filter="url(#bbburst-blur-4)"></use><use xlink:href="#bbburst-shape-14" width="34.777838855621766" opacity="0.1933398264751558" transform="matrix(1.0749938109604285,-0.6378779713995262,0.6378779713995262,1.0749938109604285,-192.9160751672793,154.1792463041694)" fill="none" stroke="#ffbd9b" filter="url(#bbburst-blur-3)"></use><use xlink:href="#bbburst-shape-10" width="23.131302692721597" opacity="0.548479978542908" transform="matrix(0.7610567674595621,-0.6486852832491286,0.6486852832491286,0.7610567674595621,43.11093072597072,285.9226069997499)" fill="none" stroke="#ffa6d5" filter="url(#bbburst-blur-2)"></use><use xlink:href="#bbburst-shape-3" width="13.534602715958155" opacity="0.7982200266178668" transform="matrix(0.88027242132366,0.4744686125098064,-0.4744686125098064,0.88027242132366,641.7015790729357,114.58760317821589)" fill="#00a19d"></use><use xlink:href="#bbburst-shape-11" width="38.315075093837756" opacity="0.19462529734561296" transform="matrix(1.100859523415141,-0.5921218706534904,0.5921218706534904,1.100859523415141,113.84164686807225,-390.88475272476467)" fill="none" stroke="#00a19d" filter="url(#bbburst-blur-3)"></use><use xlink:href="#bbburst-shape-2" width="11.694645744868222" opacity="0.7565208356742722" transform="matrix(0.9807951131624421,0.1950408828852874,-0.1950408828852874,0.9807951131624421,438.73907531970656,-97.75814251247238)" fill="#ffa6d5" filter="url(#bbburst-blur-1)"></use><use xlink:href="#bbburst-shape-12" width="30.717387467647665" opacity="0.013080342317812188" transform="matrix(1.552248941343316,0.8080985237571927,-0.8080985237571927,1.552248941343316,442.3856623800766,128.7604009313602)" fill="none" stroke="#00a19d" filter="url(#bbburst-blur-4)"></use><use xlink:href="#bbburst-shape-13" width="14.563183469673088" opacity="0.6865329633247853" transform="matrix(0.9834294405149127,-0.18129130020088066,0.18129130020088066,0.9834294405149127,180.37093825069996,25.59823649394076)" fill="none" stroke="#ffa6d5" filter="url(#bbburst-blur-1)"></use><use xlink:href="#bbburst-shape-7" width="35.00098558693481" opacity="0.21010691645354473" transform="matrix(1.2206651264577844,0.26921487523872334,-0.26921487523872334,1.2206651264577844,307.5129085191045,-400.3140706373625)" fill="#00a19d" filter="url(#bbburst-blur-3)"></use><use xlink:href="#bbburst-shape-13" width="13.706939961281591" opacity="0.668771845512697" transform="matrix(0.9896781375863728,-0.14330800390616183,0.14330800390616183,0.9896781375863728,390.1198060952103,-133.72810814863396)" fill="none" stroke="#00a19d" filter="url(#bbburst-blur-1)"></use><use xlink:href="#bbburst-shape-11" width="21.6030611818085" opacity="0.5523856074139499" transform="matrix(0.999659050906279,0.02611095442831118,-0.02611095442831118,0.999659050906279,468.0473577765038,-189.8835573006097)" fill="none" stroke="#ffbd9b" filter="url(#bbburst-blur-2)"></use><use xlink:href="#bbburst-shape-5" width="28.05100691720296" opacity="0.10301781566880597" transform="matrix(1.6653271912798984,0.5377595614991938,-0.5377595614991938,1.6653271912798984,955.4078526308192,-448.8230817916693)" fill="#ffa6d5" filter="url(#bbburst-blur-4)"></use><use xlink:href="#bbburst-shape-2" width="17.145931342036857" opacity="0.5490666780625005" transform="matrix(0.7202997740349455,0.6936629120294716,-0.6936629120294716,0.7202997740349455,685.933160808115,-96.45096194233668)" fill="#ffa6d5" filter="url(#bbburst-blur-2)"></use><use xlink:href="#bbburst-shape-11" width="30.88386207019034" opacity="0.29300777784873133" transform="matrix(1.2488805656583057,0.05288981679860828,-0.05288981679860828,1.2488805656583057,284.00731307668104,194.63431988580516)" fill="none" stroke="#2c2891" filter="url(#bbburst-blur-3)"></use><use xlink:href="#bbburst-shape-5" width="27.058980904594694" opacity="0.43820542435084087" transform="matrix(0.9977550111089538,0.06696967826540155,-0.06696967826540155,0.9977550111089538,333.81193014744275,239.98171622125608)" fill="#00a19d" filter="url(#bbburst-blur-2)"></use><use xlink:href="#bbburst-shape-8" width="18.246147627899663" opacity="0.7301750371794578" transform="matrix(0.9644291478344521,0.26434148143511726,-0.26434148143511726,0.9644291478344521,616.3811353242301,-10.01138593621198)" fill="none" stroke="#ff5c58" filter="url(#bbburst-blur-1)"></use><use xlink:href="#bbburst-shape-7" width="20.525326977993338" opacity="0.6144642907157547" transform="matrix(0.8792568771352384,-0.47634792327708153,0.47634792327708153,0.8792568771352384,201.00892634869524,226.7048191429978)" fill="#00a19d" filter="url(#bbburst-blur-1)"></use><use xlink:href="#bbburst-shape-14" width="39.504737426700366" opacity="0.12420471680221723" transform="matrix(1.2392727000919626,-0.1634110608458814,0.1634110608458814,1.2392727000919626,38.18302902937681,-377.62811697282655)" fill="none" stroke="#ffa6d5" filter="url(#bbburst-blur-3)"></use><use xlink:href="#bbburst-shape-12" width="9.82561540727872" opacity="0.8072768960073986" transform="matrix(0.9966094909807993,0.08227710791582377,-0.08227710791582377,0.9966094909807993,341.2912247157363,0.6472065511680967)" fill="none" stroke="#00a19d"></use><use xlink:href="#bbburst-shape-11" width="20.77769375748741" opacity="0.49946560901326076" transform="matrix(0.7592272208140484,0.6508256503664989,-0.6508256503664989,0.7592272208140484,874.3200712096717,129.1066923641709)" fill="none" stroke="#ffa6d5" filter="url(#bbburst-blur-2)"></use><use xlink:href="#bbburst-shape-2" width="36.48189149753708" opacity="-0.00489373277428351" transform="matrix(1.2531973692511558,-1.2214730261868179,1.2214730261868179,1.2531973692511558,247.49016278705193,-354.04926832195537)" fill="#ffbd9b" filter="url(#bbburst-blur-4)"></use><use xlink:href="#bbburst-shape-11" width="13.920317080879174" opacity="0.8244890879358031" transform="matrix(0.9354671890587051,0.3534135512322708,-0.3534135512322708,0.9354671890587051,550.170903182212,-54.30752410194964)" fill="none" stroke="#ffbd9b"></use><use xlink:href="#bbburst-shape-14" width="7.070392612874311" opacity="0.9593947936922433" transform="matrix(0.8787543005735181,0.4772744275818126,-0.4772744275818126,0.8787543005735181,578.4370177473506,31.127428246668842)" fill="none" stroke="#2c2891"></use><use xlink:href="#bbburst-shape-12" width="24.916661995284528" opacity="0.507035915455029" transform="matrix(0.9338155797362309,-0.3577547526475185,0.3577547526475185,0.9338155797362309,466.61081497559417,16.438368163618748)" fill="none" stroke="#00a19d" filter="url(#bbburst-blur-2)"></use><use xlink:href="#bbburst-shape-10" width="12.781789791051677" opacity="0.8526931243284988" transform="matrix(0.9269990309593477,-0.37506372338634736,0.37506372338634736,0.9269990309593477,295.65728725246055,73.20044800060862)" fill="none" stroke="#ffa6d5"></use><use xlink:href="#bbburst-shape-2" width="24.8343766421537" opacity="0.5983224949624704" transform="matrix(0.963212451261965,-0.2687410905200704,0.2687410905200704,0.963212451261965,423.7905211734623,128.30691959520107)" fill="#2c2891" filter="url(#bbburst-blur-1)"></use><use xlink:href="#bbburst-shape-3" width="26.80161973726836" opacity="0.491013280319611" transform="matrix(0.9532638869472956,0.30213897769426185,-0.30213897769426185,0.9532638869472956,285.90768006185317,70.68120639713919)" fill="#ffa6d5" filter="url(#bbburst-blur-2)"></use><use xlink:href="#bbburst-shape-7" width="6.609650643867418" opacity="0.9535656714244009" transform="matrix(0.934262597394329,-0.3565857528141047,0.3565857528141047,0.934262597394329,253.42405195290985,48.358734674061)" fill="#2c2891"></use><use xlink:href="#bbburst-shape-4" width="8.116806003992663" opacity="0.9153427276154842" transform="matrix(0.994145484980371,0.10804977877415083,-0.10804977877415083,0.994145484980371,443.992739712451,39.70173600517842)" fill="#00a19d"></use><use xlink:href="#bbburst-shape-7" width="11.850442904169583" opacity="0.7680530182052885" transform="matrix(0.8607858881644054,0.5089672432848855,-0.5089672432848855,0.8607858881644054,505.63330021748357,100.38452615546271)" fill="#ffa6d5" filter="url(#bbburst-blur-1)"></use><use xlink:href="#bbburst-shape-9" width="20.226692443040584" opacity="0.6136530120657439" transform="matrix(0.9496026478067005,0.31345623502891706,-0.31345623502891706,0.9496026478067005,391.565800861111,-104.74021633721202)" fill="none" stroke="#ffa6d5" filter="url(#bbburst-blur-1)"></use><use xlink:href="#bbburst-shape-12" width="30.813002092323707" opacity="0.30075225806013917" transform="matrix(0.9307823689115211,-0.8343525524162176,0.8343525524162176,0.9307823689115211,-260.89767952899416,6.039360004029675)" fill="none" stroke="#2c2891" filter="url(#bbburst-blur-3)"></use><use xlink:href="#bbburst-shape-12" width="34.574579063875234" opacity="0.10386761150709134" transform="matrix(1.2943409312509246,-1.177786718251012,1.177786718251012,1.2943409312509246,266.57459138384564,83.97747470071329)" fill="none" stroke="#00a19d" filter="url(#bbburst-blur-4)"></use><use xlink:href="#bbburst-shape-2" width="13.730554688468153" opacity="0.7270149069844445" transform="matrix(0.9789324244933524,0.20418449567870436,-0.20418449567870436,0.9789324244933524,570.2064171537805,84.60145564166874)" fill="#00a19d" filter="url(#bbburst-blur-1)"></use><use xlink:href="#bbburst-shape-2" width="8.679277643727701" opacity="0.9083668927800985" transform="matrix(0.7827722049454845,-0.6223083441227383,0.6223083441227383,0.7827722049454845,186.27608643390943,104.1157159898105)" fill="#ffbd9b"></use><use xlink:href="#bbburst-shape-3" width="7.985631275730979" opacity="0.8532405550617999" transform="matrix(0.7670477268891189,-0.6415900440890862,0.6415900440890862,0.7670477268891189,121.5636910647811,32.42746712472035)" fill="#2c2891"></use><use xlink:href="#bbburst-shape-1" width="19.6504648966323" opacity="0.5908234681315555" transform="matrix(0.9992698515678615,-0.03820685471932892,0.03820685471932892,0.9992698515678615,519.0628349026678,-113.85317020373435)" fill="#ffbd9b" filter="url(#bbburst-blur-1)"></use><use xlink:href="#bbburst-shape-9" width="8.78848120386994" opacity="0.8963722625345951" transform="matrix(0.8969172576542189,-0.44219840899989166,0.44219840899989166,0.8969172576542189,172.56573526330075,41.07399877889611)" fill="none" stroke="#ff5c58"></use><use xlink:href="#bbburst-shape-7" width="7.8875343939613485" opacity="0.9147053007559558" transform="matrix(0.8078587762648486,0.5893761087895074,-0.5893761087895074,0.8078587762648486,601.4205729496948,52.0498070516158)" fill="#2c2891"></use><use xlink:href="#bbburst-shape-9" width="15.853824816054503" opacity="0.6093073208271975" transform="matrix(0.9965547518898212,-0.08293748540808822,0.08293748540808822,0.9965547518898212,458.49237291322095,146.82353542637543)" fill="none" stroke="#2c2891" filter="url(#bbburst-blur-1)"></use><use xlink:href="#bbburst-shape-13" width="31.90533590799863" opacity="0.17608112034327672" transform="matrix(1.0690562800990697,0.647779800534672,-0.647779800534672,1.0690562800990697,689.8574854840692,-405.6256578756505)" fill="none" stroke="#2c2891" filter="url(#bbburst-blur-3)"></use><use xlink:href="#bbburst-shape-14" width="19.453837485301676" opacity="0.6817221280521784" transform="matrix(0.9661940656707532,-0.25781587899627206,0.25781587899627206,0.9661940656707532,178.40322981690363,108.87339781228786)" fill="none" stroke="#ffbd9b" filter="url(#bbburst-blur-1)"></use><use xlink:href="#bbburst-shape-4" width="23.054670612716006" opacity="0.41288904027591944" transform="matrix(0.9864782106922741,0.1638924642238596,-0.1638924642238596,0.9864782106922741,189.9847660355013,2.355078212637352)" fill="#ffa6d5" filter="url(#bbburst-blur-2)"></use><use xlink:href="#bbburst-shape-3" width="7.832185144948446" opacity="0.8489248216254528" transform="matrix(0.9822895172809872,0.18736943251204324,-0.18736943251204324,0.9822895172809872,404.2213936994199,-6.018085226590642)" fill="#2c2891"></use><use xlink:href="#bbburst-shape-10" width="23.748478713820752" opacity="0.16716747840972646" transform="matrix(0.9652664699507624,-0.7942044081902302,0.7942044081902302,0.9652664699507624,-297.396875247421,-46.285892552206235)" fill="none" stroke="#2c2891" filter="url(#bbburst-blur-3)"></use><use xlink:href="#bbburst-shape-4" width="28.087612867606758" opacity="0.24992292986721076" transform="matrix(1.2495630665007655,0.033047584438251405,-0.033047584438251405,1.2495630665007655,671.6833004827122,94.0259619091272)" fill="#00a19d" filter="url(#bbburst-blur-3)"></use><use xlink:href="#bbburst-shape-3" width="15.06293609435448" opacity="0.6705546805648204" transform="matrix(0.8734439208838277,0.4869247550403303,-0.4869247550403303,0.8734439208838277,724.6192273619963,-10.96908439327558)" fill="#ffbd9b" filter="url(#bbburst-blur-1)"></use><use xlink:href="#bbburst-shape-11" width="13.630996959130844" opacity="0.7628147250490301" transform="matrix(0.7894672604848673,0.613792672343454,-0.613792672343454,0.7894672604848673,686.3263577891136,-16.381698398585968)" fill="none" stroke="#2c2891" filter="url(#bbburst-blur-1)"></use><use xlink:href="#bbburst-shape-7" width="19.808869513252635" opacity="0.6903173315723065" transform="matrix(0.7366036715858348,0.6763246491192433,-0.6763246491192433,0.7366036715858348,789.7450781199556,156.9449779249337)" fill="#ff5c58" filter="url(#bbburst-blur-1)"></use><use xlink:href="#bbburst-shape-12" width="14.438146557203192" opacity="0.7035791140649168" transform="matrix(0.9903119438223836,0.13886055567630487,-0.13886055567630487,0.9903119438223836,369.89943856832343,-104.9983615278017)" fill="none" stroke="#ffbd9b" filter="url(#bbburst-blur-1)"></use><use xlink:href="#bbburst-shape-8" width="25.771948107554355" opacity="0.30374075337080375" transform="matrix(0.9265737038419021,0.8390239396755607,-0.8390239396755607,0.9265737038419021,491.9280956961224,-192.30389117283332)" fill="none" stroke="#ffa6d5" filter="url(#bbburst-blur-3)"></use><use xlink:href="#bbburst-shape-8" width="12.989784559362098" opacity="0.8101706991952995" transform="matrix(0.9741195452825354,0.22603343004641252,-0.22603343004641252,0.9741195452825354,418.5930344655126,-45.95855190470735)" fill="none" stroke="#00a19d"></use><use xlink:href="#bbburst-shape-5" width="34.85154278615799" opacity="0.3099275211764104" transform="matrix(1.0936881809215568,-0.6052653656971427,0.6052653656971427,1.0936881809215568,-109.25409896310501,159.83929478714833)" fill="#2c2891" filter="url(#bbburst-blur-3)"></use><use xlink:href="#bbburst-shape-11" width="7.73587484000926" opacity="0.8665014527207651" transform="matrix(0.9720592504562677,0.23473562491108788,-0.23473562491108788,0.9720592504562677,454.0508567161263,-37.84121381141358)" fill="none" stroke="#00a19d"></use><use xlink:href="#bbburst-shape-10" width="15.99954081251162" opacity="0.6516068476839547" transform="matrix(0.9192629167735463,-0.39364411572509506,0.39364411572509506,0.9192629167735463,165.6048423961695,175.932746745173)" fill="none" stroke="#00a19d" filter="url(#bbburst-blur-1)"></use><use xlink:href="#bbburst-shape-11" width="5.823145271609189" opacity="0.9166697415286638" transform="matrix(0.943958631107046,0.3300637858937449,-0.3300637858937449,0.943958631107046,506.49507454755303,51.1503896553196)" fill="none" stroke="#ffbd9b"></use><use xlink:href="#bbburst-shape-14" width="16.66305610259511" opacity="0.5754204655111839" transform="matrix(0.915953358098512,0.4012847440260582,-0.4012847440260582,0.915953358098512,731.9320915552581,-36.35434839576084)" fill="none" stroke="#ffbd9b" filter="url(#bbburst-blur-1)"></use><use xlink:href="#bbburst-shape-12" width="27.691770685447132" opacity="0.3324129117078628" transform="matrix(1.0948941518569424,0.6030810859490345,-0.6030810859490345,1.0948941518569424,886.240275143204,-196.62000653948297)" fill="none" stroke="#ffa6d5" filter="url(#bbburst-blur-3)"></use><use xlink:href="#bbburst-shape-9" width="22.90621635314188" opacity="0.2701410493602294" transform="matrix(1.018065083129521,0.7252885539648903,-0.7252885539648903,1.018065083129521,589.3351913369097,-331.77255041627086)" fill="none" stroke="#2c2891" filter="url(#bbburst-blur-3)"></use><use xlink:href="#bbburst-shape-9" width="18.5293002793073" opacity="0.5977103675395652" transform="matrix(0.9233803828764696,0.383886270292263,-0.383886270292263,0.9233803828764696,365.1347571202277,47.05894293572328)" fill="none" stroke="#ffa6d5" filter="url(#bbburst-blur-1)"></use><use xlink:href="#bbburst-shape-12" width="12.55524772321906" opacity="0.7158610358835777" transform="matrix(0.9997399033540042,-0.022806263212685543,0.022806263212685543,0.9997399033540042,427.2388748519708,120.76839225453415)" fill="none" stroke="#2c2891" filter="url(#bbburst-blur-1)"></use><use xlink:href="#bbburst-shape-8" width="29.65005872082631" opacity="0.3165811283842126" transform="matrix(0.9921102244631812,-0.7604060116251161,0.7604060116251161,0.9921102244631812,139.5533819290048,-287.5090640875523)" fill="none" stroke="#00a19d" filter="url(#bbburst-blur-3)"></use><use xlink:href="#bbburst-shape-4" width="25.341750101383273" opacity="0.15874749784222253" transform="matrix(1.240219817779831,0.1560602562671332,-0.1560602562671332,1.240219817779831,814.907506251414,-10.07151311934922)" fill="#ffa6d5" filter="url(#bbburst-blur-3)"></use><use xlink:href="#bbburst-shape-1" width="21.41594017338787" opacity="0.6212361473436158" transform="matrix(0.9505998528723415,0.3104189422684812,-0.3104189422684812,0.9505998528723415,684.0918923836294,5.831174733101591)" fill="#00a19d" filter="url(#bbburst-blur-1)"></use><use xlink:href="#bbburst-shape-5" width="34.65035552197047" opacity="0.30107615041419167" transform="matrix(1.2175386614466825,-0.28301874122153153,0.28301874122153153,1.2175386614466825,484.8430758161463,-307.71299190788204)" fill="#ff5c58" filter="url(#bbburst-blur-3)"></use><use xlink:href="#bbburst-shape-1" width="28.211938553513747" opacity="0.054162203346417526" transform="matrix(1.7447553347733509,0.13538397903715266,-0.13538397903715266,1.7447553347733509,650.2310620347821,-663.6887720470477)" fill="#2c2891" filter="url(#bbburst-blur-4)"></use><use xlink:href="#bbburst-shape-9" width="28.880622348516354" opacity="0.33344177581447687" transform="matrix(0.9638604815333456,0.2664075301831898,-0.2664075301831898,0.9638604815333456,214.90534994949152,123.5707341997882)" fill="none" stroke="#ffbd9b" filter="url(#bbburst-blur-2)"></use><use xlink:href="#bbburst-shape-2" width="10.214289967707629" opacity="0.8027341539437469" transform="matrix(0.7867612868010412,0.6172573835857857,-0.6172573835857857,0.7867612868010412,596.0628711373814,157.5662488308962)" fill="#ffbd9b"></use><use xlink:href="#bbburst-shape-10" width="7.799628089085371" opacity="0.8497293917257609" transform="matrix(0.9982551071009921,-0.05904863374191429,0.05904863374191429,0.9982551071009921,348.5429872096887,64.16875177183385)" fill="none" stroke="#2c2891"></use><use xlink:href="#bbburst-shape-10" width="11.019171981965146" opacity="0.8427863806417546" transform="matrix(0.9989486831657881,-0.04584243014215086,0.04584243014215086,0.9989486831657881,308.64427217037394,21.809479339276265)" fill="none" stroke="#ff5c58"></use><use xlink:href="#bbburst-shape-8" width="9.012009914472502" opacity="0.8694492353815781" transform="matrix(0.9762641523650383,-0.21658325144612015,0.21658325144612015,0.9762641523650383,311.3852213895582,69.16834362431422)" fill="none" stroke="#ff5c58"></use><use xlink:href="#bbburst-shape-10" width="19.23504742044559" opacity="0.5232069297335431" transform="matrix(0.960338041263755,-0.27883838778348735,0.27883838778348735,0.960338041263755,365.7274062665562,214.89469962166743)" fill="none" stroke="#ffa6d5" filter="url(#bbburst-blur-2)"></use><use xlink:href="#bbburst-shape-7" width="35.38607817819989" opacity="0.03050678489060965" transform="matrix(1.7331561998383318,0.24221805663895685,-0.24221805663895685,1.7331561998383318,101.68958295878356,-57.584024524930214)" fill="#ffbd9b" filter="url(#bbburst-blur-4)"></use><use xlink:href="#bbburst-shape-4" width="15.053710102897153" opacity="0.594665016160169" transform="matrix(0.9880989701645462,0.15381945637585423,-0.15381945637585423,0.9880989701645462,422.84368462680345,-176.08863007602199)" fill="#00a19d" filter="url(#bbburst-blur-1)"></use><use xlink:href="#bbburst-shape-7" width="22.35351525744177" opacity="0.5699707638308515" transform="matrix(0.9999999912471681,0.0001323089705369029,-0.0001323089705369029,0.9999999912471681,500.4548435988123,-158.05839195096326)" fill="#00a19d" filter="url(#bbburst-blur-1)"></use><use xlink:href="#bbburst-shape-12" width="23.050180428003216" opacity="0.4375055986172318" transform="matrix(0.8733902995903996,-0.4870209282786439,0.4870209282786439,0.8733902995903996,59.5520976997617,269.98730730060595)" fill="none" stroke="#ff5c58" filter="url(#bbburst-blur-2)"></use><use xlink:href="#bbburst-shape-2" width="17.003001266817474" opacity="0.603000649448699" transform="matrix(0.8183355046777636,0.574740812700638,-0.574740812700638,0.8183355046777636,540.2017721739776,-90.55172902491631)" fill="#00a19d" filter="url(#bbburst-blur-1)"></use><use xlink:href="#bbburst-shape-7" width="21.102279077767157" opacity="0.5882396191051578" transform="matrix(0.9999069172858732,-0.013643927728546505,0.013643927728546505,0.9999069172858732,210.67912593186432,65.91710225875727)" fill="#00a19d" filter="url(#bbburst-blur-1)"></use><use xlink:href="#bbburst-shape-13" width="27.696596297148787" opacity="0.2722577187511872" transform="matrix(1.2497820510177742,-0.023341485681205205,0.023341485681205205,1.2497820510177742,681.0662809259746,12.482720365780438)" fill="none" stroke="#ff5c58" filter="url(#bbburst-blur-3)"></use><use xlink:href="#bbburst-shape-3" width="8.940078116766642" opacity="0.9909113046134295" transform="matrix(0.7492145215081493,0.6623274120563899,-0.6623274120563899,0.7492145215081493,658.0350794237298,99.41130323340792)" fill="#ffa6d5"></use><use xlink:href="#bbburst-shape-8" width="11.129240202792865" opacity="0.7597490001501509" transform="matrix(0.8848177218128735,-0.4659373339472555,0.4659373339472555,0.8848177218128735,102.44350597027815,68.6072779296776)" fill="none" stroke="#00a19d" filter="url(#bbburst-blur-1)"></use><use xlink:href="#bbburst-shape-7" width="13.110669556851173" opacity="0.7643918006101799" transform="matrix(0.9286847689466442,0.3708700580075428,-0.3708700580075428,0.9286847689466442,465.496964678027,99.25055516157062)" fill="#ffa6d5" filter="url(#bbburst-blur-1)"></use><use xlink:href="#bbburst-shape-8" width="14.450039498571144" opacity="0.8191526777075522" transform="matrix(0.9624477782707457,0.2714668931964,-0.2714668931964,0.9624477782707457,582.4411257961902,3.4172586931094884)" fill="none" stroke="#00a19d"></use><use xlink:href="#bbburst-shape-7" width="32.43029537442172" opacity="0.11598903661762672" transform="matrix(1.0053059481500666,0.7428727687929444,-0.7428727687929444,1.0053059481500666,315.11842769966586,-171.0146307273908)" fill="#ffa6d5" filter="url(#bbburst-blur-3)"></use><use xlink:href="#bbburst-shape-1" width="16.339009139793863" opacity="0.5473840902692809" transform="matrix(0.7885418678496732,-0.6149810750325155,0.6149810750325155,0.7885418678496732,-27.50283933184474,-14.447667449200821)" fill="#00a19d" filter="url(#bbburst-blur-2)"></use><use xlink:href="#bbburst-shape-14" width="31.137994784133326" opacity="0.18418561090673768" transform="matrix(1.207970575882473,-0.32141419975191865,0.32141419975191865,1.207970575882473,51.38349318298532,228.90079256613626)" fill="none" stroke="#ffbd9b" filter="url(#bbburst-blur-3)"></use><use xlink:href="#bbburst-shape-4" width="6.522224753656816" opacity="0.9430434675598279" transform="matrix(0.9716071635796947,-0.23659991479419534,0.23659991479419534,0.9716071635796947,276.6576509134995,9.92763555562027)" fill="#ff5c58"></use><use xlink:href="#bbburst-shape-10" width="37.39052845346782" opacity="-0.1018825951308806" transform="matrix(1.6818777871345414,0.4835153659848031,-0.4835153659848031,1.6818777871345414,214.31410551411386,-635.3505139352912)" fill="none" stroke="#00a19d" filter="url(#bbburst-blur-4)"></use><use xlink:href="#bbburst-shape-1" width="20.47238812291395" opacity="0.3968979763319477" transform="matrix(0.7545891364562077,0.6561975580130383,-0.6561975580130383,0.7545891364562077,713.1249942198065,356.50813144771604)" fill="#00a19d" filter="url(#bbburst-blur-2)"></use><use xlink:href="#bbburst-shape-7" width="25.594513289210486" opacity="0.36406418814175345" transform="matrix(0.8132415856082889,-0.5819262182075287,0.5819262182075287,0.8132415856082889,128.06228380296324,-202.53334686288753)" fill="#ffa6d5" filter="url(#bbburst-blur-2)"></use><use xlink:href="#bbburst-shape-10" width="26.77047597047425" opacity="0.16413737006081897" transform="matrix(1.0185378716134228,0.7246244572805961,-0.7246244572805961,1.0185378716134228,1043.9009455553855,-96.41138069187457)" fill="none" stroke="#00a19d" filter="url(#bbburst-blur-3)"></use><use xlink:href="#bbburst-shape-12" width="18.832058940165666" opacity="0.6465799154894313" transform="matrix(0.9980080245243556,0.06308710632921241,-0.06308710632921241,0.9980080245243556,258.5886419855181,-23.61206571022285)" fill="none" stroke="#ffbd9b" filter="url(#bbburst-blur-1)"></use><use xlink:href="#bbburst-shape-3" width="8.801430264424141" opacity="0.9657424077667871" transform="matrix(0.9558519103922359,-0.2938488138473815,0.2938488138473815,0.9558519103922359,289.8893894323505,8.886492298865278)" fill="#ff5c58"></use><use xlink:href="#bbburst-shape-3" width="9.029579205593905" opacity="0.915500050278052" transform="matrix(0.8852570142308036,-0.46510215948236877,0.46510215948236877,0.8852570142308036,233.80137459318,77.6128256652749)" fill="#2c2891"></use><use xlink:href="#bbburst-shape-11" width="34.0271321685061" opacity="0.2710399920214911" transform="matrix(1.2274865504251369,-0.23617105776406627,0.23617105776406627,1.2274865504251369,445.54111432822316,-373.3205658171041)" fill="none" stroke="#00a19d" filter="url(#bbburst-blur-3)"></use><use xlink:href="#bbburst-shape-3" width="31.810043886155153" opacity="0.14058810762479412" transform="matrix(0.9013339732902758,0.8660814445493937,-0.8660814445493937,0.9013339732902758,989.2738389680321,314.32129441292034)" fill="#2c2891" filter="url(#bbburst-blur-3)"></use><use xlink:href="#bbburst-shape-1" width="27.893480871435536" opacity="0.42181231022686205" transform="matrix(0.9337259940597673,0.35798850263255577,-0.35798850263255577,0.9337259940597673,619.938816013725,-222.65389303224345)" fill="#ff5c58" filter="url(#bbburst-blur-2)"></use><use xlink:href="#bbburst-shape-3" width="28.198512264057257" opacity="0.29001270336851903" transform="matrix(1.1522214182757216,-0.4846501864919527,0.4846501864919527,1.1522214182757216,-109.22581457906277,-166.5990582644706)" fill="#ffa6d5" filter="url(#bbburst-blur-3)"></use><use xlink:href="#bbburst-shape-1" width="17.471933145355642" opacity="0.7005564044678231" transform="matrix(0.9200400676931895,0.3918242894960843,-0.3918242894960843,0.9200400676931895,629.2048787675733,136.62691078222156)" fill="#ffbd9b" filter="url(#bbburst-blur-1)"></use><use xlink:href="#bbburst-shape-11" width="21.905806065869076" opacity="0.39445633911658695" transform="matrix(0.9989272557477743,0.04630699433369251,-0.04630699433369251,0.9989272557477743,675.3189048097444,-51.12518349310835)" fill="none" stroke="#00a19d" filter="url(#bbburst-blur-2)"></use><use xlink:href="#bbburst-shape-1" width="18.180581268986828" opacity="0.47780781256709204" transform="matrix(0.84663824657545,0.5321688448562615,-0.5321688448562615,0.84663824657545,590.2670946731856,291.041112198621)" fill="#2c2891" filter="url(#bbburst-blur-2)"></use><use xlink:href="#bbburst-shape-7" width="10.446946077860439" opacity="0.862165345210605" transform="matrix(0.7561311401617198,-0.65442012413872,0.65442012413872,0.7561311401617198,80.24138586127236,70.4909998296555)" fill="#00a19d"></use><use xlink:href="#bbburst-shape-13" width="15.432825017110018" opacity="0.561108632878744" transform="matrix(0.7855926624026109,0.6187440252472562,-0.6187440252472562,0.7855926624026109,452.84423702329747,22.337248262922685)" fill="none" stroke="#ffa6d5" filter="url(#bbburst-blur-1)"></use><use xlink:href="#bbburst-shape-2" width="30.977417934991955" opacity="-0.10393065950313729" transform="matrix(1.7401127908254694,0.18576187769721766,-0.18576187769721766,1.7401127908254694,788.4620870492661,-660.0345015614926)" fill="#ffa6d5" filter="url(#bbburst-blur-4)"></use><use xlink:href="#bbburst-shape-3" width="14.079110888741338" opacity="0.6994845629245652" transform="matrix(0.789857038837139,0.6132910061295749,-0.6132910061295749,0.789857038837139,647.8263970258704,214.69531956116822)" fill="#ff5c58" filter="url(#bbburst-blur-1)"></use><use xlink:href="#bbburst-shape-1" width="15.117516720793166" opacity="0.6831409113129072" transform="matrix(0.9902852520530111,-0.1390507805310858,0.1390507805310858,0.9902852520530111,423.68471372063743,-108.17573524527967)" fill="#00a19d" filter="url(#bbburst-blur-1)"></use><use xlink:href="#bbburst-shape-2" width="9.50795631370112" opacity="0.844142146900973" transform="matrix(0.7185052541972469,-0.6955215307170222,0.6955215307170222,0.7185052541972469,154.75861153014966,55.94464562280069)" fill="#00a19d"></use><use xlink:href="#bbburst-shape-7" width="18.414862871612865" opacity="0.5861222251680823" transform="matrix(0.9241757979283027,0.3819673998178182,-0.3819673998178182,0.9241757979283027,424.90159533817683,169.787372238824)" fill="#00a19d" filter="url(#bbburst-blur-1)"></use><use xlink:href="#bbburst-shape-4" width="14.747855388801552" opacity="0.6853225938138144" transform="matrix(0.9998689367577107,-0.016189790208802513,0.016189790208802513,0.9998689367577107,256.76800505089165,57.73423720063175)" fill="#ff5c58" filter="url(#bbburst-blur-1)"></use><use xlink:href="#bbburst-shape-12" width="24.448682910754048" opacity="0.34982979403121617" transform="matrix(0.9529956396697054,0.30298401075061543,-0.30298401075061543,0.9529956396697054,335.6048930002694,-220.19229672015868)" fill="none" stroke="#00a19d" filter="url(#bbburst-blur-2)"></use><use xlink:href="#bbburst-shape-5" width="25.16637228765717" opacity="0.4581759983841194" transform="matrix(0.8125114014244822,0.5829452997968368,-0.5829452997968368,0.8125114014244822,811.2657414904277,-87.21827678590168)" fill="#ffbd9b" filter="url(#bbburst-blur-2)"></use><use xlink:href="#bbburst-shape-2" width="16.346904566281992" opacity="0.7113485109578408" transform="matrix(0.9999390512977433,0.011040547530309922,-0.011040547530309922,0.9999390512977433,499.8848997264745,-78.35595181757952)" fill="#ffa6d5" filter="url(#bbburst-blur-1)"></use><use xlink:href="#bbburst-shape-5" width="24.917317260288996" opacity="0.18147985552721724" transform="matrix(0.9983432911974415,-0.7522038772308081,0.7522038772308081,0.9983432911974415,46.532651550978585,376.17363502600824)" fill="#2c2891" filter="url(#bbburst-blur-3)"></use><use xlink:href="#bbburst-shape-10" width="10.531584505672301" opacity="0.8837207873983809" transform="matrix(0.8674238993294434,0.4975698733566007,-0.4975698733566007,0.8674238993294434,601.184408952213,-1.4814652120971914)" fill="none" stroke="#ffa6d5"></use><use xlink:href="#bbburst-shape-3" width="27.54817287496289" opacity="0.032052228692479034" transform="matrix(1.4147855822632787,-1.0299911437580207,1.0299911437580207,1.4147855822632787,-269.69730990772194,-516.3817866306713)" fill="#ffbd9b" filter="url(#bbburst-blur-4)"></use><use xlink:href="#bbburst-shape-11" width="12.887538832820976" opacity="0.7864091538682938" transform="matrix(0.9767624100923634,0.2143249734178396,-0.2143249734178396,0.9767624100923634,565.7226469214932,-34.66302873737277)" fill="none" stroke="#ffa6d5"></use><use xlink:href="#bbburst-shape-13" width="32.7650407791343" opacity="0.23671648379144095" transform="matrix(1.2499887452013305,0.0053044198554937074,-0.0053044198554937074,1.2499887452013305,526.3970942098066,211.40330279484272)" fill="none" stroke="#ffa6d5" filter="url(#bbburst-blur-3)"></use><use xlink:href="#bbburst-shape-12" width="19.463377029598863" opacity="0.1694147350332862" transform="matrix(1.165175353412011,-0.45262169170422556,0.45262169170422556,1.165175353412011,-165.6670978546611,-42.37868324850933)" fill="none" stroke="#2c2891" filter="url(#bbburst-blur-3)"></use><use xlink:href="#bbburst-shape-13" width="8.270350708473108" opacity="0.9582168746778749" transform="matrix(0.7749057336499817,-0.6320768180817767,0.6320768180817767,0.7749057336499817,160.65877917020407,101.302752166873)" fill="none" stroke="#00a19d"></use></svg>